# xmcd
#
# Track frame offsets:
# 150
# 20508
# 40280
# 57155
# 76540
# 98213
# 123748
# 150725
# 177120
# 196540
# 216388
# 237063
#
# Disc length: 3429 seconds
#
#
# Revision: 0
# Processed by: cddbd v1.5.2PL0 Copyright (c) Steve Scherf et al.
# Submitted via: FreeRIP 2.951 
#
DISCID=920d630c
DTITLE=Harry McGonigal - Hot, Blue and Righteous
DYEAR=1994
DGENRE=Blues
TTITLE0=Mess With Me
TTITLE1=I'll Play The Blues For You
TTITLE2=Gypsy Love
TTITLE3=Don't Throw Good Love After Bad
TTITLE4=My Baby Bought A Ticket
TTITLE5=Help Me
TTITLE6=Love That's True
TTITLE7=Route 66
TTITLE8=Life Under The Gun
TTITLE9=Ain't Nobody
TTITLE10=Rude Shoes
TTITLE11=American Steel
EXTD=
EXTT0=
EXTT1=
EXTT2=
EXTT3=
EXTT4=
EXTT5=
EXTT6=
EXTT7=
EXTT8=
EXTT9=
EXTT10=
EXTT11=
PLAYORDER=
